<svg xmlns="http://www.w3.org/2000/svg" viewBox="0 0 1920 1080" role="img" aria-label="Luxury interior placeholder">
  <defs>
    <linearGradient id="wall" x1="0" x2="1">
      <stop offset="0" stop-color="#06111d"/>
      <stop offset=".5" stop-color="#d6a84f"/>
      <stop offset="1" stop-color="#ffffff"/>
    </linearGradient>
    <linearGradient id="floor" x1="0" x2="1">
      <stop offset="0" stop-color="#06111d"/>
      <stop offset="1" stop-color="#d6a84f"/>
    </linearGradient>
  </defs>
  <rect width="1920" height="1080" fill="url(#wall)"/>
  <rect y="710" width="1920" height="370" fill="url(#floor)"/>
  <rect x="1090" y="120" width="630" height="580" fill="#ffffff" opacity=".8"/>
  <rect x="1130" y="150" width="220" height="510" fill="#f2cf7a" opacity=".6"/>
  <rect x="1375" y="150" width="300" height="510" fill="#ffffff" opacity=".76"/>
  <rect x="330" y="175" width="430" height="520" fill="#0a1826" opacity=".82"/>
  <rect x="380" y="230" width="90" height="130" fill="#d6a84f"/>
  <rect x="500" y="230" width="90" height="130" fill="#f2cf7a"/>
  <rect x="620" y="230" width="90" height="130" fill="#0e1d2b"/>
  <rect x="810" y="245" width="170" height="250" fill="#0a1826"/>
  <rect x="250" y="635" width="850" height="150" rx="18" fill="#d6a84f"/>
  <rect x="850" y="645" width="420" height="150" rx="18" fill="#ffffff"/>
  <rect x="330" y="595" width="160" height="88" rx="12" fill="#ffffff"/>
  <rect x="555" y="585" width="170" height="96" rx="12" fill="#f2cf7a"/>
  <rect x="785" y="590" width="175" height="92" rx="12" fill="#ffffff"/>
  <rect x="625" y="790" width="560" height="72" rx="14" fill="#06111d"/>
  <circle cx="1570" cy="605" r="72" fill="#0e1d2b"/>
  <rect x="1562" y="600" width="16" height="185" fill="#d6a84f"/>
  <text x="144" y="166" fill="#ffffff" font-family="Manrope,sans-serif" font-size="52">LUXNOVA</text>
</svg>
